Simulation
nRows=44
nColumns=15
endheader
time  TH_x TH_y TH_z SC_y  SC_z  SC_x  AC_y  AC_z  AC_x  GH_y  GH_z  GH_yy  EL_x  PS_y
0.75  0.000000  0.000000  0.000000  -29.354065065557432  0.9430355467278366  21.707257861112474  53.6470690473566  1.4315002404952675  -10.950079233329383  20.64929959238068  33.05384315143906  -17.380782799365814  19.96383041715536  0.000000
0.765  0.000000  0.000000  0.000000  -29.51354074236891  1.0515641663421098  21.937729546712745  53.7808699671559  1.7814556005330302  -10.864567516084541  20.730643451893318  33.55915482692173  -17.716985947559976  19.75848980151616  0.000000
0.78  0.000000  0.000000  0.000000  -29.679710935312734  1.1629933528835457  22.17144807664405  53.90937495330763  2.129143754536407  -10.773694071070896  20.819462928032802  34.04996299886387  -18.05272154073651  19.551875570924476  0.000000
0.7949999999999999  0.000000  0.000000  0.000000  -29.852612902298503  1.2778295881561943  22.408505788069757  54.03206698332583  2.473754248091353  -10.677544912209754  20.915260957751325  34.526154134854444  -18.38784200177424  19.344776200112314  0.000000
0.8099999999999999  0.000000  0.000000  0.000000  -30.031780223925498  1.3957642564854018  22.64885494245038  54.14815341140553  2.8149779635690173  -10.576444790699853  21.017193744365628  34.98782053466721  -18.72214040960518  19.137619705322386  0.000000
0.825  0.000000  0.000000  0.000000  -30.216621118177027  1.5165904161402228  22.89219400591361  54.257216329623326  3.152567772992047  -10.47078628367682  21.124435619608118  35.4350736932746  -19.055686373122345  18.930759412553186  0.000000
0.84  0.000000  0.000000  0.000000  -30.406591750239027  1.640114055449969  23.138306368500213  54.35856480478421  3.486165109633944  -10.360927985893973  21.236322115353747  35.8680472925778  -19.388099927799335  18.724689914154375  0.000000
0.855  0.000000  0.000000  0.000000  -30.60103658021443  1.7661262875577175  23.38683135145451  54.451642507967  3.815521780442113  -10.247253081594533  21.35218163787544  36.28682242597302  -19.71907149783536  18.519976310852215  0.000000
0.87  0.000000  0.000000  0.000000  -30.799221249457858  1.8943594080212602  23.63741726829133  54.53594165699795  4.140333549870658  -10.130241950511792  21.471274905239394  36.69156166938303  -20.048037255123806  18.317197055393763  0.000000
0.885  0.000000  0.000000  0.000000  -31.000377054730897  2.0244950802932435  23.889672837151757  54.61103966391762  4.4603954508795525  -10.010277040403798  21.592830696261274  37.08227470362224  -20.37447084681749  18.116996371461127  0.000000
0.8999999999999999  0.000000  0.000000  0.000000  -31.203666138425213  2.1561755130298486  24.14314864649307  54.67665824247686  4.775394286612687  -9.887869722809702  21.715990570180768  37.45915323763564  -20.69770068422201  17.91999114682763  0.000000
0.9149999999999999  0.000000  0.000000  0.000000  -31.40826133799729  2.2889918549976693  24.397414898665225  54.732554543391366  5.085145849858582  -9.763426958583008  21.83994712592549  37.82215900194212  -21.01696473334803  17.726862348692787  0.000000
0.9299999999999999  0.000000  0.000000  0.000000  -31.613257088764076  2.422526499671855  24.6519279897828  54.77862530684629  5.389305274947954  -9.637477928372423  21.96378280451326  38.17150127916028  -21.331451226010135  17.538266430428155  0.000000
0.945  0.000000  0.000000  0.000000  -31.817798849850835  2.556310846295073  24.906214102321183  54.81482553581705  5.6876605451149045  -9.510445408085909  22.086663904384896  38.50710156282873  -21.640234542021563  17.354892869433307  0.000000
0.96  0.000000  0.000000  0.000000  -32.02095454683076  2.6898933427781957  25.159639853578284  54.8412257658725  5.97979945967155  -9.382864117136078  22.207644946737048  38.82918802898134  -21.942392670158565  17.17740833517105  0.000000
0.975  0.000000  0.000000  0.000000  -32.2218818641651  2.822776989609149  25.41169294375955  54.85798401014162  6.265438655537472  -9.25515721174281  22.32588250938159  39.13764855665333  -22.23689280930497  17.006491441574955  0.000000
0.99  0.000000  0.000000  0.000000  -32.41966978421843  2.9545050888285487  25.66165988787906  54.86535623465873  6.544068985872234  -9.12785693937952  22.440435022316425  39.43273989526586  -22.52274688522239  16.84279218898229  0.000000
1.005  0.000000  0.000000  0.000000  -32.61353476772636  3.0845811751084615  25.909003625096638  54.86370645032127  6.815309369954768  -9.0013704139846  22.550473985163666  39.71432900591142  -22.798868749656055  16.686962516696024  0.000000
1.02  0.000000  0.000000  0.000000  -32.80263513416508  3.2125695540085393  26.152946303545182  54.853486428491095  7.078541367534811  -8.876222993120505  22.655095511626627  39.98272462815912  -23.06425946546027  16.539613723246045  0.000000
1.035  0.000000  0.000000  0.000000  -32.986293599561115  3.338001442571147  26.392946998976804  54.83526615785408  7.3332850280057995  -8.7527919881054  22.75351788207195  40.23779613611109  -23.317837797495354  16.401356192657847  0.000000
1.05  0.000000  0.000000  0.000000  -33.163783116135896  3.4604907758682404  26.62818914473096  54.80968587879133  7.5788185984239815  -8.631590904458982  22.844915482534628  40.47994179465015  -23.558655879144307  16.272748794957426  0.000000
1.065  0.000000  0.000000  0.000000  -33.33457176187216  3.579635377091883  26.85815003878046  54.77749969257452  7.81458944340205  -8.512949195993258  22.92859764853674  40.70906712604389  -23.785702780336884  16.154342486077102  0.000000
1.08  0.000000  0.000000  0.000000  -33.498012394322295  3.695154441841583  27.081985835259314  54.739465666823435  8.039831114354804  -8.397357131313212  23.003842405187562  40.92568768415165  -23.99816296941784  16.046586948547098  0.000000
1.095  0.000000  0.000000  0.000000  -33.65367759402842  3.806758935129458  27.299247067454672  54.696406037167236  8.253976178472078  -8.285096152173818  23.07007928534747  41.12975953325907  -24.195160042589304  15.949937575533347  0.000000
1.1099999999999999  0.000000  0.000000  0.000000  -33.801148757788525  3.9143608698097045  27.509154968862237  54.6491456805221  8.456139938056625  -8.176630128988066  23.12679525453068  41.32200616725442  -24.376082296834618  15.864802353869152  0.000000
1.125  0.000000  0.000000  0.000000  -33.940212786323684  4.017931301120031  27.71122351845477  54.598534626452604  8.645794650353734  -8.072054162705598  23.173602173935958  41.502522805715756  -24.540289021318817  15.791525311575786  0.000000
1.14  0.000000  0.000000  0.000000  -34.0703339310836  4.117301551751504  27.904523521074314  54.545325553012816  8.822426086204116  -7.971823539920603  23.20999684420913  41.6723555426206  -24.68756086559913  15.730212816687452  0.000000
1.155  0.000000  0.000000  0.000000  -34.19136842417108  4.212439419051952  28.088782652611364  54.490150653615785  8.9858299267585  -7.876094884008929  23.235681921610404  41.831736940092824  -24.81754737400673  15.681092619887483  0.000000
1.17  0.000000  0.000000  0.000000  -34.303195796080374  4.303619260567157  28.26333455280016  54.43371063452011  9.135609770880889  -7.785375344465064  23.250367374697078  41.981778506947975  -24.930417975592047  15.644357679571868  0.000000
1.185  0.000000  0.000000  0.000000  -34.405802889979846  4.39069401742641  28.428018156914327  54.37660273391463  9.272163208220473  -7.699710957470586  23.253893189241982  42.122673900963896  -25.026084712105582  15.62005554718214  0.000000
1.2  0.000000  0.000000  0.000000  -34.498765271370395  4.473744281733178  28.582047158248212  54.319319967161455  9.395575739387278  -7.619595384342456  23.246251046372233  42.255790326669896  -25.105274454138982  15.607992028191218  0.000000
1.2149999999999999  0.000000  0.000000  0.000000  -34.58192616301703  4.553002206327509  28.725298909467096  54.2621140060368  9.506309650211858  -7.544875521265241  23.227856748383928  42.38124561012549  -25.168456711873436  15.60801616826862  0.000000
1.23  0.000000  0.000000  0.000000  -34.654781988133074  4.628929470439069  28.85703465541822  54.2050498361325  9.604444828801068  -7.4758956093901805  23.199471140707345  42.500238177962515  -25.216864406449947  15.61983390393933  0.000000
1.2449999999999999  0.000000  0.000000  0.000000  -34.717087821034234  4.701912479791924  28.977161241079674  54.14814331832115  9.690693155886377  -7.412376063956837  23.16225254168592  42.61233795651991  -25.251540974540156  15.64313898710139  0.000000
1.26  0.000000  0.000000  0.000000  -34.76815524786023  4.772496492936648  29.08480822785405  54.09112089286692  9.765348078136089  -7.354601308223202  23.117827058485194  42.718098271267785  -25.27432470073582  15.677431196128273  0.000000
1.275  0.000000  0.000000  0.000000  -34.80759029266795  4.841038090041043  29.179734294263636  54.0338785204184  9.829455839555706  -7.302255925542512  23.068261608049593  42.81590409884808  -25.286925315826323  15.722078675904216  0.000000
1.29  0.000000  0.000000  0.000000  -34.83447262679802  4.90795422207764  29.260711495371734  53.97587121579145  9.883521424865071  -7.2556547892914125  23.01621536603345  42.904914505742916  -25.291881240091133  15.776278734823018  0.000000
1.305  0.000000  0.000000  0.000000  -34.84837069870837  4.973243853223982  29.327097785845098  53.917206665744594  9.928936120424096  -7.214568949378957  22.964856382479795  42.98142674719407  -25.29166401515768  15.838777279061473  0.000000
1.3199999999999998  0.000000  0.000000  0.000000  -34.84840618668524  5.036651304815371  29.37685432892744  53.857445876856865  9.966511652593592  -7.179447682115788  22.917992859502412  43.04223242497859  -25.289580673184677  15.908578244884744  0.000000
1.335  0.000000  0.000000  0.000000  -34.83476507716918  5.0969742628600985  29.408422264302352  53.79790100883299  9.998235213330112  -7.150308706943599  22.879965174508182  43.080387456850836  -25.288951451160525  15.983509685888732  0.000000
1.3499999999999999  0.000000  0.000000  0.000000  -34.80737610502133  5.152346024899105  29.418739995634297  53.73874865541146  10.02524647954911  -7.128166286696876  22.855896998358116  43.08887629958344  -25.293285945248588  16.06250239841873  0.000000
1.365  0.000000  0.000000  0.000000  -34.76853591516931  5.199971025248533  29.40353595905943  53.6841721439775  10.05068795857491  -7.112271156938426  22.85079803270813  43.05564789565174  -25.30741444606968  16.140872296313717  0.000000
1.38  0.000000  0.000000  0.000000  -34.72117283790237  5.236108487212095  29.35505169339413  53.63540945479575  10.076615985325423  -7.100713973453725  22.87035075951098  42.96835650234357  -25.335810033710832  16.217115811057184  0.000000
1.395  0.000000  0.000000  0.000000  -34.671219219217214  5.254420727947981  29.26939822271991  53.60079987159257  10.103632593461978  -7.097069380034438  22.922221322743678  42.81044737905801  -25.382479924098075  16.285848558256088  0.000000
